<svg width="9" height="9" viewBox="0 0 9 9" fill="none" xmlns="http://www.w3.org/2000/svg">
<path d="M4.536 8.28C3.176 8.28 2.144 7.92 1.44 7.2C0.736 6.48 0.384 5.584 0.384 4.512C0.384 3.456 0.736 2.576 1.44 1.872C2.144 1.152 3.176 0.792 4.536 0.792C5.896 0.792 6.928 1.152 7.632 1.872C8.336 2.576 8.688 3.456 8.688 4.512C8.688 5.584 8.336 6.48 7.632 7.2C6.928 7.92 5.896 8.28 4.536 8.28ZM4.536 5.952C4.904 5.952 5.2 5.824 5.424 5.568C5.648 5.312 5.76 4.96 5.76 4.512C5.76 4.048 5.648 3.704 5.424 3.48C5.216 3.24 4.92 3.12 4.536 3.12C4.152 3.12 3.848 3.24 3.624 3.48C3.416 3.704 3.312 4.048 3.312 4.512C3.312 4.96 3.424 5.312 3.648 5.568C3.872 5.824 4.168 5.952 4.536 5.952Z" fill="#21334F"/>
</svg>
