<svg width="135" height="32" viewBox="0 0 135 32" fill="none" xmlns="http://www.w3.org/2000/svg">
<g clip-path="url(#clip0)">
<path d="M0 3.15845V25.7887H6.66042C13.9263 25.7887 18.5937 21.5503 18.5937 14.4862C18.5937 7.3969 13.9263 3.15845 6.66042 3.15845H0ZM6.66042 7.95193C10.3691 7.95193 12.8415 10.1468 12.8415 14.4862C12.8415 18.8004 10.3691 21.0205 6.66042 21.0205H5.52512V7.95193H6.66042ZM35.6232 18.7247C35.6484 18.321 35.6484 17.9678 35.6484 17.6398C35.6484 11.8624 32.7219 8.40605 27.3229 8.40605C22.3276 8.40605 18.9721 12.367 18.9721 17.3623C18.9721 22.3576 22.4032 26.2176 28.0041 26.2176C32.3939 26.2176 34.7149 23.4677 35.2195 22.4585L31.6622 19.7086C31.3343 20.2132 30.1233 21.5251 28.105 21.5251C26.0867 21.5251 24.6234 20.2384 24.4972 18.7247H35.6232ZM27.4238 12.7706C29.0889 12.7706 30.098 13.9312 30.1737 15.2935H24.6738C24.8 14.0826 25.6325 12.7706 27.4238 12.7706ZM45.3111 21.4746C42.8386 21.4746 41.1483 19.7843 41.1483 17.2866C41.1483 15.0412 42.5611 13.25 45.1345 13.25C46.3959 13.25 47.5817 13.7293 48.5151 14.5114L49.9784 9.94501C48.7926 9.11246 47.1275 8.40605 44.9326 8.40605C39.685 8.40605 35.7493 12.1147 35.7493 17.3371C35.7493 22.5342 39.5589 26.2176 44.9579 26.2176C47.1023 26.2176 48.8179 25.486 49.9532 24.7039L48.5151 20.2636C47.7835 20.8943 46.5725 21.4746 45.3111 21.4746ZM50.0036 20.5159C50.0036 24.2246 52.9806 26.2176 56.3108 26.2176C58.0516 26.2176 59.2879 25.7383 60.1456 24.8553L60.4484 25.7887H65.2671V15.2935C65.2671 11.4083 63.7786 8.40605 57.9255 8.40605C55.0999 8.40605 52.804 9.31429 51.0128 10.5001L53.0059 14.133C54.343 13.4771 55.781 13.0482 57.2695 13.0482C59.0356 13.0482 59.8681 13.8555 59.8681 14.8899V15.5206C59.2626 15.2431 58.0769 14.8899 56.5884 14.8899C52.577 14.8899 50.0036 17.1352 50.0036 20.5159ZM55.4026 20.3393C55.4026 19.2292 56.3613 18.5228 57.6732 18.5228C58.9599 18.5228 59.969 19.1788 59.969 20.3393C59.969 21.4746 58.9851 22.0801 57.6984 22.0801C56.437 22.0801 55.4026 21.4746 55.4026 20.3393ZM78.6384 24.931C78.6384 26.9997 76.6453 27.4539 74.627 27.4539C72.3312 27.4539 70.439 26.6465 69.9344 26.4195L68.3702 30.557C69.884 31.3391 72.2303 31.9951 74.627 31.9951C79.6728 31.9951 84.0374 30.0272 84.0374 23.7704V8.80972H78.9916V10.1468C78.5123 9.59181 76.8976 8.40605 74.3999 8.40605C69.5308 8.40605 66.0997 12.0895 66.0997 17.2866C66.0997 22.5595 69.2028 26.2176 74.1224 26.2176C76.6958 26.2176 78.2852 24.931 78.6384 24.5021V24.931ZM78.815 17.2614C78.815 19.9356 77.276 21.4746 75.1568 21.4746C72.9619 21.4746 71.4986 19.759 71.4986 17.2614C71.4986 14.7385 72.9619 13.1491 75.1316 13.1491C77.4526 13.1491 78.815 14.9908 78.815 17.2614ZM128.667 25.7887H134.066V16.3784C134.066 12.922 133.562 8.40605 128.238 8.40605C126.119 8.40605 124.631 9.56658 123.975 10.5757V8.80972H118.702V25.7887H124.101V15.672C124.101 14.3096 124.959 13.25 126.447 13.25C127.734 13.25 128.667 14.0826 128.667 15.672V25.7887Z" fill="#2D2F48"/>
<path fill-rule="evenodd" clip-rule="evenodd" d="M97.005 7.54832C97.7366 7.54832 98.4683 7.624 99.1999 7.77538L98.3169 10.1973C97.9132 10.1469 97.4843 10.1217 97.0555 10.1217C95.9706 10.1217 94.9362 10.2983 93.9523 10.6515L93.5486 8.07812C94.6335 7.72492 95.794 7.54832 97.005 7.54832ZM95.6426 23.6443C95.2642 22.9884 94.9615 22.3072 94.7344 21.626L97.2825 21.1719C97.4339 21.5503 97.6105 21.9288 97.8376 22.282C98.3674 23.2407 99.0485 24.048 99.8306 24.704L97.8376 26.3438C96.9798 25.587 96.2481 24.6787 95.6426 23.6443ZM116.406 19.3807C116.33 19.9357 116.229 20.4655 116.103 20.9953L114.993 20.516C115.119 20.0618 115.245 19.6077 115.321 19.1536L116.406 19.3807ZM114.892 23.7957C114.564 24.376 114.161 24.9058 113.707 25.4104L112.647 24.2751C113.051 23.8966 113.404 23.4677 113.732 23.0136L114.892 23.7957ZM111.764 27.1512C111.486 27.353 111.209 27.5548 110.906 27.7314C110.376 28.0342 109.821 28.2865 109.266 28.4883L108.762 26.5961C109.418 26.3943 110.099 26.1168 110.73 25.7383C110.83 25.6879 110.906 25.6374 111.007 25.587L111.764 27.1512ZM107.248 29.0433C106.087 29.2452 104.902 29.2704 103.741 29.0938L104.473 26.8736C105.406 27.0502 106.39 27.0502 107.374 26.9241L107.248 29.0433ZM102.48 28.8415L103.438 26.6466C102.354 26.3438 101.319 25.8393 100.411 25.1581L98.6701 27.025C99.8054 27.8828 101.117 28.4883 102.48 28.8415ZM90.2941 27.6557C89.8652 27.3278 89.4363 26.9746 89.0579 26.5709L90.0166 25.8645C90.3446 26.2177 90.6726 26.5457 91.051 26.8484L90.2941 27.6557ZM87.2162 24.1489C86.9135 23.5687 86.6359 22.9379 86.4089 22.3072L87.9226 21.954C88.074 22.4838 88.2506 23.0136 88.4776 23.5182L87.2162 24.1489ZM85.8791 19.7591C85.8286 19.4059 85.8286 19.0779 85.8286 18.7247C85.8286 18.094 85.8791 17.5137 85.98 16.9082L87.8722 17.4128C87.6955 18.094 87.6199 18.8256 87.6199 19.5573V19.86L85.8791 19.7591ZM86.5098 14.8899C86.9135 13.7798 87.4937 12.7455 88.2001 11.8372L89.7643 13.5528C89.1588 14.3097 88.6542 15.1422 88.2758 16.0757L86.5098 14.8899ZM89.0579 10.8533L90.4707 12.7959C91.278 12.0138 92.2367 11.3579 93.2711 10.9038L92.5395 8.48179C91.2276 9.03682 90.0418 9.84414 89.0579 10.8533ZM110.25 16.7569C109.872 17.4128 109.443 18.0183 108.963 18.5481L107.298 16.5803C107.551 16.2523 107.778 15.8991 107.98 15.5459C108.535 14.5872 108.888 13.6032 109.09 12.5941L111.512 13.5023C111.259 14.6376 110.856 15.7225 110.25 16.7569ZM96.1977 0.913122C96.7023 0.686062 97.2068 0.50946 97.7366 0.383316L97.8628 1.56907C97.4087 1.66999 96.9545 1.79613 96.5257 1.97274L96.1977 0.913122ZM100.764 0.00488281C101.42 0.00488281 102.101 0.0805694 102.757 0.206714L102.303 1.69522C101.773 1.54384 101.218 1.46816 100.663 1.4177L100.764 0.00488281ZM105.23 1.01404C105.558 1.16541 105.86 1.31678 106.163 1.49339C106.693 1.79613 107.197 2.14934 107.652 2.52777L106.264 3.91536C105.759 3.43601 105.179 3.00712 104.523 2.62869C104.448 2.57823 104.347 2.52777 104.271 2.47731L105.23 1.01404ZM109.14 3.99105C109.897 4.89928 110.502 5.93367 110.931 6.99328L108.661 7.49786C108.308 6.58962 107.828 5.73184 107.223 4.94974L109.14 3.99105ZM111.36 8.2295C111.713 9.59186 111.84 11.0299 111.663 12.4427L109.191 11.8625C109.317 10.7272 109.241 9.59186 108.963 8.50701L111.36 8.2295Z" fill="#B8D344"/>
<path fill-rule="evenodd" clip-rule="evenodd" d="M91.6817 15.1926C92.0602 14.5619 92.489 13.9564 92.9684 13.4014L94.6335 15.3692C94.3812 15.6972 94.1542 16.0504 93.9271 16.4288C93.3973 17.3623 93.0189 18.3715 92.8423 19.3806L90.4203 18.4472C90.6726 17.3371 91.0762 16.227 91.6817 15.1926ZM106.289 8.33038C106.668 8.98633 106.945 9.64228 107.197 10.3487L104.649 10.8028C104.498 10.4244 104.296 10.0459 104.094 9.66751C103.539 8.73404 102.858 7.92671 102.076 7.24553L104.094 5.63089C104.927 6.38775 105.684 7.29599 106.289 8.33038ZM85.5259 12.5688C85.5763 12.039 85.6773 11.5092 85.8286 10.9794L86.9387 11.4588C86.7873 11.8876 86.6864 12.3418 86.6107 12.8211L85.5259 12.5688ZM87.0396 8.15377C87.3676 7.59874 87.7712 7.0437 88.2001 6.53913L89.2598 7.67443C88.8813 8.07809 88.5029 8.50698 88.2001 8.93587L87.0396 8.15377ZM90.1428 4.79833C90.4203 4.5965 90.723 4.4199 91.0258 4.2433C91.5556 3.94055 92.0854 3.66303 92.6404 3.4612L93.1702 5.35337C92.489 5.5552 91.8331 5.83272 91.1771 6.21115C91.1015 6.26161 91.0005 6.31207 90.9249 6.36252L90.1428 4.79833ZM94.684 2.90617C95.8445 2.70434 97.0302 2.67911 98.1908 2.85571L97.4591 5.07585C96.5004 4.92448 95.5165 4.89925 94.5578 5.05062L94.684 2.90617ZM99.4522 3.108L98.4935 5.30291C99.5784 5.60566 100.588 6.11023 101.521 6.79141L103.262 4.92448C102.101 4.09192 100.815 3.4612 99.4522 3.108ZM104.927 24.4012C104.17 24.4012 103.438 24.3255 102.732 24.1993L103.615 21.7521C104.019 21.8026 104.448 21.8531 104.851 21.8531C105.961 21.8531 106.996 21.6512 107.98 21.3232L108.358 23.8714C107.273 24.2246 106.138 24.4012 104.927 24.4012ZM111.638 4.31898C112.067 4.64696 112.47 5.00016 112.849 5.3786L111.89 6.11023C111.587 5.75703 111.234 5.42905 110.881 5.12631L111.638 4.31898ZM114.69 7.8258C115.018 8.40606 115.296 9.01156 115.523 9.64228L114.009 9.99548C113.858 9.46568 113.656 8.93587 113.429 8.43129L114.69 7.8258ZM116.053 12.2156C116.078 12.5436 116.103 12.8968 116.103 13.25C116.103 13.8555 116.053 14.461 115.952 15.0413L114.06 14.5367C114.211 13.8555 114.312 13.1491 114.312 12.3922C114.312 12.2913 114.312 12.1904 114.287 12.0895L116.053 12.2156ZM115.422 17.0848C115.018 18.1949 114.438 19.2293 113.732 20.1375L112.142 18.3967C112.773 17.6398 113.278 16.8073 113.631 15.899L115.422 17.0848ZM112.849 21.0962L111.436 19.1788C110.629 19.9609 109.695 20.5916 108.636 21.0457L109.392 23.4929C110.704 22.9127 111.865 22.1053 112.849 21.0962ZM105.734 31.0616C105.23 31.2634 104.725 31.44 104.195 31.5914L104.044 30.3804C104.498 30.3047 104.952 30.1534 105.406 30.002L105.734 31.0616ZM101.168 31.9446C100.487 31.9446 99.8306 31.8689 99.1747 31.7428L99.6288 30.2543C100.159 30.4056 100.714 30.5066 101.243 30.557L101.168 31.9446ZM96.677 30.9355C96.3743 30.7841 96.0715 30.6327 95.7688 30.4561C95.239 30.1534 94.7344 29.8002 94.2803 29.4217L95.6427 28.0341C96.1725 28.5135 96.7527 28.9676 97.3834 29.3208C97.4844 29.3713 97.5601 29.4217 97.661 29.4722L96.677 30.9355ZM92.7918 27.9584C92.0097 27.0502 91.4294 26.041 90.9753 24.9562L93.2711 24.4516C93.5991 25.3599 94.0785 26.2177 94.7092 26.9997L92.7918 27.9584ZM90.5717 23.72C90.1932 22.3576 90.0923 20.9448 90.2437 19.5068L92.7161 20.087C92.59 21.2223 92.6909 22.3576 92.9684 23.4677L90.5717 23.72Z" fill="#34A853"/>
</g>
<defs>
<clipPath id="clip0">
<rect width="134.066" height="32" fill="white"/>
</clipPath>
</defs>
</svg>
