<svg width="166" height="40" viewBox="0 0 166 40" fill="none" xmlns="http://www.w3.org/2000/svg">
<g clip-path="url(#clip0)">
<path d="M0 3.94815V32.236H8.24105C17.2313 32.236 23.0063 26.938 23.0063 18.1079C23.0063 9.24622 17.2313 3.94815 8.24105 3.94815H0ZM8.24105 9.94001C12.8298 9.94001 15.889 12.6837 15.889 18.1079C15.889 23.5005 12.8298 26.2757 8.24105 26.2757H6.83633V9.94001H8.24105ZM44.0771 23.4059C44.1083 22.9013 44.1083 22.4598 44.1083 22.0499C44.1083 14.8281 40.4873 10.5077 33.807 10.5077C27.6262 10.5077 23.4745 15.4588 23.4745 21.703C23.4745 27.9471 27.7199 32.7721 34.6499 32.7721C40.0815 32.7721 42.9534 29.3347 43.5777 28.0733L39.1762 24.6358C38.7704 25.2666 37.272 26.9064 34.7747 26.9064C32.2774 26.9064 30.4669 25.2981 30.3108 23.4059H44.0771ZM33.9319 15.9634C35.9922 15.9634 37.2408 17.4141 37.3345 19.117H30.5293C30.6854 17.6033 31.7156 15.9634 33.9319 15.9634ZM56.0641 26.8434C53.0049 26.8434 50.9135 24.7304 50.9135 21.6084C50.9135 18.8017 52.6616 16.5626 55.8456 16.5626C57.4064 16.5626 58.8736 17.1618 60.0286 18.1394L61.8391 12.4314C60.3719 11.3907 58.3117 10.5077 55.5959 10.5077C49.1029 10.5077 44.2332 15.1435 44.2332 21.6714C44.2332 28.1679 48.9468 32.7721 55.6271 32.7721C58.2805 32.7721 60.4032 31.8576 61.8079 30.88L60.0286 25.3296C59.1233 26.118 57.6249 26.8434 56.0641 26.8434ZM61.8703 25.645C61.8703 30.2808 65.5538 32.7721 69.6743 32.7721C71.8282 32.7721 73.3578 32.173 74.4192 31.0692L74.7938 32.236H80.7561V19.117C80.7561 14.2605 78.9143 10.5077 71.6722 10.5077C68.176 10.5077 65.3353 11.643 63.119 13.1252L65.585 17.6664C67.2395 16.8464 69.0188 16.3103 70.8605 16.3103C73.0457 16.3103 74.0758 17.3195 74.0758 18.6124V19.4008C73.3266 19.0539 71.8595 18.6124 70.0177 18.6124C65.0544 18.6124 61.8703 21.4191 61.8703 25.645ZM68.5506 25.4242C68.5506 24.0366 69.7368 23.1536 71.36 23.1536C72.952 23.1536 74.2007 23.9736 74.2007 25.4242C74.2007 26.8434 72.9832 27.6002 71.3912 27.6002C69.8304 27.6002 68.5506 26.8434 68.5506 25.4242ZM97.3006 31.1638C97.3006 33.7498 94.8345 34.3174 92.3372 34.3174C89.4966 34.3174 87.1553 33.3083 86.531 33.0244L84.5956 38.1964C86.4686 39.174 89.3717 39.9939 92.3372 39.9939C98.5804 39.9939 103.981 37.5341 103.981 29.7131V11.0122H97.7376V12.6837C97.1445 11.9899 95.1467 10.5077 92.0563 10.5077C86.0316 10.5077 81.7862 15.1119 81.7862 21.6084C81.7862 28.1994 85.6258 32.7721 91.7129 32.7721C94.8969 32.7721 96.8636 31.1638 97.3006 30.6277V31.1638ZM97.5191 21.5768C97.5191 24.9197 95.6149 26.8434 92.9928 26.8434C90.277 26.8434 88.4664 24.6989 88.4664 21.5768C88.4664 18.4232 90.277 16.4364 92.9615 16.4364C95.8334 16.4364 97.5191 18.7386 97.5191 21.5768ZM159.202 32.236H165.882V20.4731C165.882 16.1526 165.258 10.5077 158.671 10.5077C156.049 10.5077 154.208 11.9583 153.396 13.2198V11.0122H146.872V32.236H153.552V19.5901C153.552 17.8871 154.613 16.5626 156.455 16.5626C158.047 16.5626 159.202 17.6033 159.202 19.5901V32.236Z" fill="white"/>
<path fill-rule="evenodd" clip-rule="evenodd" d="M120.026 9.43546C120.931 9.43546 121.837 9.53007 122.742 9.71928L121.649 12.7467C121.15 12.6837 120.619 12.6521 120.088 12.6521C118.746 12.6521 117.466 12.8729 116.249 13.3144L115.749 10.0977C117.092 9.65621 118.528 9.43546 120.026 9.43546ZM118.34 29.5555C117.872 28.7356 117.497 27.8841 117.217 27.0326L120.369 26.465C120.557 26.938 120.775 27.411 121.056 27.8525C121.712 29.0509 122.555 30.0601 123.522 30.88L121.056 32.9299C119.995 31.9838 119.09 30.8485 118.34 29.5555ZM144.031 24.2259C143.938 24.9197 143.813 25.5819 143.657 26.2442L142.283 25.645C142.439 25.0774 142.595 24.5097 142.689 23.9421L144.031 24.2259ZM142.158 29.7447C141.752 30.47 141.253 31.1323 140.691 31.763L139.38 30.3439C139.879 29.8709 140.316 29.3347 140.722 28.7671L142.158 29.7447ZM138.287 33.939C137.944 34.1913 137.601 34.4436 137.226 34.6643C136.571 35.0428 135.884 35.3581 135.197 35.6104L134.573 33.2452C135.384 32.9929 136.227 32.646 137.008 32.173C137.132 32.1099 137.226 32.0468 137.351 31.9838L138.287 33.939ZM132.7 36.3042C131.264 36.5565 129.797 36.588 128.361 36.3673L129.266 33.5921C130.421 33.8129 131.638 33.8129 132.856 33.6552L132.7 36.3042ZM126.8 36.0519L127.986 33.3083C126.644 32.9299 125.364 32.2991 124.24 31.4477L122.086 33.7813C123.491 34.8536 125.114 35.6104 126.8 36.0519ZM111.723 34.5697C111.192 34.1598 110.661 33.7183 110.193 33.2137L111.379 32.3307C111.785 32.7722 112.191 33.1821 112.659 33.5606L111.723 34.5697ZM107.914 30.1862C107.54 29.4609 107.196 28.6725 106.915 27.8841L108.788 27.4426C108.975 28.1048 109.194 28.7671 109.475 29.3978L107.914 30.1862ZM106.26 24.6989C106.197 24.2574 106.197 23.8475 106.197 23.406C106.197 22.6175 106.26 21.8922 106.385 21.1354L108.726 21.7661C108.507 22.6175 108.414 23.5321 108.414 24.4466V24.8251L106.26 24.6989ZM107.04 18.6125C107.54 17.2249 108.258 15.9319 109.132 14.7966L111.067 16.9411C110.318 17.8871 109.693 18.9278 109.225 20.0947L107.04 18.6125ZM110.193 13.5667L111.941 15.995C112.94 15.0173 114.126 14.1974 115.406 13.6298L114.501 10.6023C112.878 11.2961 111.41 12.3052 110.193 13.5667ZM136.414 20.9461C135.946 21.7661 135.416 22.5229 134.822 23.1852L132.762 20.7254C133.074 20.3154 133.355 19.8739 133.605 19.4324C134.292 18.234 134.729 17.0041 134.979 15.7427L137.975 16.878C137.663 18.2971 137.164 19.6532 136.414 20.9461ZM119.027 1.14146C119.651 0.857639 120.276 0.636887 120.931 0.479206L121.087 1.9614C120.525 2.08755 119.964 2.24523 119.433 2.46598L119.027 1.14146ZM124.677 0.00616455C125.489 0.00616455 126.332 0.100773 127.143 0.258453L126.581 2.11908C125.926 1.92987 125.239 1.83526 124.552 1.77219L124.677 0.00616455ZM130.202 1.26761C130.608 1.45683 130.983 1.64604 131.357 1.86679C132.013 2.24523 132.637 2.68673 133.199 3.15977L131.482 4.89426C130.858 4.29507 130.14 3.75896 129.328 3.28592C129.235 3.22285 129.11 3.15977 129.016 3.0967L130.202 1.26761ZM135.041 4.98887C135.977 6.12417 136.727 7.41715 137.257 8.74166L134.448 9.37239C134.011 8.23709 133.418 7.16486 132.669 6.18724L135.041 4.98887ZM137.788 10.2869C138.225 11.9899 138.381 13.7874 138.163 15.5535L135.103 14.8281C135.259 13.409 135.166 11.9899 134.822 10.6338L137.788 10.2869Z" fill="#B8D344"/>
<path fill-rule="evenodd" clip-rule="evenodd" d="M113.439 18.991C113.908 18.2026 114.438 17.4457 115.031 16.7519L117.092 19.2117C116.779 19.6217 116.499 20.0632 116.218 20.5363C115.562 21.7031 115.094 22.9645 114.875 24.226L111.879 23.0591C112.191 21.6716 112.69 20.284 113.439 18.991ZM131.513 10.4132C131.982 11.2331 132.325 12.053 132.637 12.9361L129.484 13.5037C129.297 13.0307 129.047 12.5576 128.798 12.0846C128.111 10.9177 127.268 9.90859 126.3 9.05712L128.798 7.03881C129.828 7.98489 130.764 9.12019 131.513 10.4132ZM105.823 15.7112C105.885 15.049 106.01 14.3867 106.197 13.7245L107.571 14.3236C107.383 14.8598 107.259 15.4274 107.165 16.0266L105.823 15.7112ZM107.696 10.1924C108.101 9.49862 108.601 8.80483 109.132 8.17411L110.443 9.59323C109.974 10.0978 109.506 10.6339 109.132 11.17L107.696 10.1924ZM111.535 5.99811C111.879 5.74583 112.253 5.52507 112.628 5.30432C113.283 4.92589 113.939 4.57899 114.626 4.3267L115.281 6.69191C114.438 6.9442 113.627 7.29109 112.815 7.76414C112.721 7.82721 112.597 7.89028 112.503 7.95335L111.535 5.99811ZM117.154 3.63291C118.59 3.38062 120.057 3.34908 121.493 3.56984L120.588 6.34501C119.402 6.1558 118.184 6.12426 116.998 6.31348L117.154 3.63291ZM123.054 3.8852L121.868 6.62884C123.21 7.00727 124.459 7.63799 125.614 8.48947L127.768 6.1558C126.332 5.1151 124.74 4.3267 123.054 3.8852ZM129.828 30.5017C128.891 30.5017 127.986 30.4071 127.112 30.2494L128.205 27.1904C128.704 27.2534 129.235 27.3165 129.734 27.3165C131.108 27.3165 132.388 27.0642 133.605 26.6543L134.073 29.8394C132.731 30.2809 131.326 30.5017 129.828 30.5017ZM138.131 5.39893C138.662 5.8089 139.161 6.2504 139.63 6.72344L138.443 7.63799C138.069 7.19649 137.632 6.78652 137.195 6.40808L138.131 5.39893ZM141.908 9.78245C142.314 10.5078 142.658 11.2646 142.939 12.053L141.066 12.4946C140.878 11.8323 140.629 11.17 140.348 10.5393L141.908 9.78245ZM143.594 15.2697C143.625 15.6797 143.657 16.1212 143.657 16.5627C143.657 17.3196 143.594 18.0764 143.469 18.8018L141.128 18.171C141.315 17.3196 141.44 16.4366 141.44 15.4905C141.44 15.3643 141.44 15.2382 141.409 15.112L143.594 15.2697ZM142.814 21.3562C142.314 22.7438 141.596 24.0368 140.722 25.1721L138.756 22.9961C139.536 22.05 140.16 21.0093 140.597 19.874L142.814 21.3562ZM139.63 26.3704L137.882 23.9737C136.883 24.9513 135.728 25.7397 134.417 26.3074L135.353 29.3664C136.976 28.641 138.412 27.6319 139.63 26.3704ZM130.827 38.8272C130.202 39.0795 129.578 39.3002 128.923 39.4895L128.735 37.9757C129.297 37.8811 129.859 37.6919 130.421 37.5027L130.827 38.8272ZM125.177 39.931C124.334 39.931 123.522 39.8363 122.711 39.6787L123.272 37.818C123.928 38.0073 124.615 38.1334 125.27 38.1965L125.177 39.931ZM119.62 38.6695C119.246 38.4803 118.871 38.2911 118.496 38.0703C117.841 37.6919 117.217 37.2504 116.655 36.7773L118.34 35.0429C118.996 35.642 119.714 36.2097 120.494 36.6512C120.619 36.7143 120.713 36.7773 120.838 36.8404L119.62 38.6695ZM114.813 34.9483C113.845 33.813 113.127 32.5515 112.565 31.1955L115.406 30.5647C115.812 31.7 116.405 32.7723 117.185 33.7499L114.813 34.9483ZM112.066 29.6502C111.598 27.9472 111.473 26.1812 111.66 24.3837L114.719 25.109C114.563 26.5281 114.688 27.9472 115.031 29.3348L112.066 29.6502Z" fill="#34A853"/>
</g>
<defs>
<clipPath id="clip0">
<rect width="165.882" height="40" fill="white"/>
</clipPath>
</defs>
</svg>
