<svg width="60" height="36" viewBox="0 0 60 36" fill="none" xmlns="http://www.w3.org/2000/svg">
<path d="M59.6065 18.0999C59.6093 27.8871 51.6773 35.8227 41.8901 35.8253C32.1027 35.8277 24.1673 27.8961 24.1647 18.1089C24.1647 18.1057 24.1647 18.1031 24.1647 18.0999C24.1621 8.31287 32.0941 0.376868 41.8809 0.374268C51.6683 0.371668 59.6039 8.30367 59.6065 18.0909C59.6065 18.0939 59.6065 18.0967 59.6065 18.0999Z" fill="#FF9900"/>
<path d="M18.0002 0.379972C8.27103 0.441772 0.393433 8.35717 0.393433 18.101C0.393433 27.8828 8.33243 35.8218 18.1144 35.8218C22.7054 35.8218 26.8902 34.0722 30.0392 31.2046C30.039 31.2046 30.0386 31.2042 30.0378 31.2038H30.0416C30.6864 30.6162 31.2878 29.9822 31.8406 29.3062H28.21C27.7252 28.7206 27.2846 28.1104 26.8888 27.4808H33.1504C33.5312 26.8714 33.876 26.2386 34.182 25.5832H25.855C25.5712 24.9748 25.3248 24.3526 25.1144 23.7214H34.9234C35.5146 21.955 35.8354 20.0652 35.8354 18.1008C35.8354 16.7984 35.6942 15.5286 35.427 14.306H24.5942C24.7284 13.6768 24.8978 13.0552 25.0998 12.4444H34.9124C34.693 11.7944 34.4382 11.161 34.1484 10.547H25.854C26.1532 9.90777 26.4922 9.28597 26.8708 8.68557H33.1278C32.7114 8.02217 32.2506 7.38837 31.7524 6.78797H28.2638C28.8032 6.15317 29.397 5.55537 30.0416 4.99797C26.8924 2.12997 22.7064 0.379972 18.1144 0.379972C18.0762 0.379972 18.0384 0.379772 18.0002 0.379972Z" fill="#CC0000"/>
<path d="M57.8286 27.3638C57.925 27.3638 58.0188 27.3888 58.1104 27.438C58.2024 27.4872 58.2732 27.5582 58.3244 27.6504C58.3756 27.7416 58.4012 27.8378 58.4012 27.9374C58.4012 28.0358 58.3758 28.131 58.3254 28.2222C58.2752 28.3132 58.2044 28.3842 58.1132 28.4348C58.023 28.4846 57.9276 28.5098 57.8284 28.5098C57.7292 28.5098 57.634 28.4846 57.5432 28.4348C57.4522 28.384 57.3818 28.3134 57.3306 28.2222C57.2803 28.131 57.2552 28.0358 57.2552 27.9374C57.2552 27.8378 57.2806 27.7416 57.332 27.6504C57.3836 27.5582 57.4548 27.4878 57.5462 27.438C57.6386 27.3888 57.7324 27.3638 57.8286 27.3638ZM57.8286 27.4588C57.7484 27.4588 57.67 27.4796 57.5934 27.521C57.5174 27.5624 57.458 27.621 57.4152 27.6986C57.3718 27.775 57.3502 27.8542 57.3502 27.9374C57.3502 28.0198 57.3714 28.0994 57.4132 28.175C57.456 28.2504 57.5152 28.3096 57.5908 28.352C57.667 28.3942 57.746 28.415 57.8284 28.415C57.9112 28.415 57.9904 28.3942 58.0662 28.352C58.1418 28.3096 58.2008 28.2504 58.243 28.175C58.2848 28.0994 58.3056 28.02 58.3056 27.9374C58.3056 27.8542 58.2844 27.7748 58.2414 27.6986C58.1988 27.621 58.1392 27.5624 58.0626 27.521C57.9868 27.4794 57.9088 27.4588 57.8286 27.4588ZM57.5774 28.2538V27.6374H57.7898C57.8618 27.6374 57.9142 27.643 57.9466 27.655C57.979 27.6664 58.0048 27.6858 58.0242 27.7144C58.0432 27.7426 58.053 27.7726 58.053 27.8046C58.053 27.8498 58.037 27.889 58.0046 27.9222C57.973 27.9554 57.93 27.9744 57.8768 27.9784C57.8986 27.9874 57.916 27.9988 57.9296 28.0112C57.9546 28.0352 57.9846 28.0758 58.0206 28.1332L58.0956 28.2538H57.9744L57.92 28.1568C57.877 28.0804 57.8424 28.0328 57.8158 28.0132C57.7976 27.9994 57.771 27.9922 57.7364 27.9922H57.6778V28.2544H57.5778L57.5774 28.2538ZM57.677 27.9068H57.7978C57.8554 27.9068 57.8944 27.898 57.9154 27.881C57.9366 27.8634 57.9472 27.841 57.9472 27.8126C57.9472 27.7942 57.9424 27.7778 57.9322 27.7638C57.9218 27.7492 57.9078 27.7388 57.8896 27.7314C57.8718 27.7244 57.8386 27.7204 57.7902 27.7204H57.6774V27.9068" fill="#FCB340"/>
<path d="M23.995 23.1838L24.231 21.5798C24.102 21.5798 23.9124 21.6356 23.7448 21.6356C23.088 21.6356 23.006 21.2846 23.0576 21.0282L23.7048 17.8022H24.7032L24.909 15.9816H23.968L24.1596 14.8784H22.1912C22.1496 14.92 21.0776 21.0828 21.0776 21.8336C21.0776 22.9446 21.7012 23.439 22.5808 23.4312C23.2692 23.4254 23.8058 23.2348 23.995 23.1838Z" fill="#000066"/>
<path d="M24.5925 20.1263C24.5925 22.7927 26.3523 23.4261 27.8519 23.4261C29.2361 23.4261 29.9619 23.1053 29.9619 23.1053L30.2943 21.2853C30.2943 21.2853 29.1247 21.7609 28.1741 21.7609C26.1479 21.7609 26.5031 20.2501 26.5031 20.2501L30.3957 20.2619C30.3957 20.2619 30.6435 19.0397 30.6435 18.5415C30.6435 17.2981 29.9661 15.7717 27.8945 15.7717C25.9973 15.7721 24.5925 17.8163 24.5925 20.1263ZM27.9017 17.4613C28.9665 17.4613 28.7701 18.6581 28.7701 18.7551H26.6753C26.6753 18.6311 26.8731 17.4613 27.9017 17.4613Z" fill="#000066"/>
<path d="M39.8492 23.1832L40.187 21.1264C40.187 21.1264 39.2606 21.5906 38.6256 21.5906C37.287 21.5906 36.75 20.5686 36.75 19.4704C36.75 17.243 37.9016 16.0174 39.1836 16.0174C40.1452 16.0174 40.9166 16.5572 40.9166 16.5572L41.2246 14.5586C41.2246 14.5586 40.3138 13.9008 39.3334 13.897C36.3844 13.8854 34.697 15.9386 34.697 19.488C34.697 21.8406 35.9466 23.4416 38.1982 23.4416C38.8348 23.4416 39.8492 23.1832 39.8492 23.1832Z" fill="#000066"/>
<path d="M13.6172 15.8013C12.3234 15.8013 11.3318 16.2171 11.3318 16.2171L11.0578 17.8425C11.0578 17.8425 11.8764 17.5099 13.114 17.5099C13.8166 17.5099 14.3306 17.5889 14.3306 18.1599C14.3306 18.5067 14.2678 18.6347 14.2678 18.6347C14.2678 18.6347 13.7134 18.5885 13.4566 18.5885C11.6146 18.5885 10.1108 19.2849 10.1108 21.3845C10.1108 23.0391 11.2354 23.4185 11.9324 23.4185C13.2638 23.4185 13.7908 22.5779 13.8212 22.5755L13.8058 23.2731C13.8058 23.2731 15.467 23.2731 15.4672 23.2731L16.2084 18.0771C16.2084 15.8721 14.2852 15.8013 13.6172 15.8013ZM13.9048 20.0205C13.941 20.3377 13.8228 21.8377 12.6864 21.8377C12.1004 21.8377 11.9482 21.3897 11.9482 21.1253C11.9482 20.6085 12.2288 19.9887 13.6112 19.9887C13.9332 19.9887 13.8506 20.0119 13.9048 20.0205Z" fill="#000066"/>
<path d="M17.9743 23.3799C18.3993 23.3799 20.8287 23.4881 20.8287 20.9811C20.8287 18.6369 18.5799 19.1003 18.5799 18.1583C18.5799 17.6899 18.9465 17.5423 19.6167 17.5423C19.8825 17.5423 20.9061 17.6269 20.9061 17.6269L21.1439 15.9609C21.1439 15.9611 20.4815 15.8127 19.4031 15.8127C18.0073 15.8127 16.5905 16.3699 16.5905 18.2763C16.5905 20.4367 18.9529 20.2197 18.9529 21.1297C18.9529 21.7371 18.2929 21.7871 17.7841 21.7871C16.9039 21.7871 16.1115 21.4849 16.1087 21.4995L15.8569 23.1485C15.9027 23.1625 16.3917 23.3799 17.9743 23.3799Z" fill="#000066"/>
<path d="M55.4127 14.2896L55.0717 16.8314C55.0717 16.8314 54.3611 15.8503 53.2493 15.8503C51.1575 15.8503 50.0795 17.9349 50.0795 20.3295C50.0795 21.8755 50.8483 23.3909 52.4193 23.3909C53.5495 23.3909 54.1761 22.6027 54.1761 22.6027L54.0931 23.2757H55.9287L57.3701 14.3034L55.4127 14.2896ZM54.6023 19.2297C54.6023 20.2263 54.1087 21.5577 53.0861 21.5577C52.4069 21.5577 52.0885 20.9875 52.0885 20.0929C52.0885 18.6299 52.7455 17.6649 53.5749 17.6649C54.2537 17.6649 54.6023 18.1309 54.6023 19.2297Z" fill="#000066"/>
<path d="M3.40108 23.2834L4.54968 16.5094L4.71848 23.2834H6.01828L8.44328 16.5094L7.36908 23.2834H9.30068L10.7881 14.299L7.71968 14.2756L5.89448 19.7764L5.84448 14.299H3.03248L1.52368 23.2834H3.40108Z" fill="#000066"/>
<path d="M32.4715 23.2959C33.0207 20.1729 33.2163 17.7065 34.8179 18.2173C35.0479 17.0085 35.5961 15.9573 35.8465 15.4457C35.8465 15.4457 35.7673 15.3279 35.2723 15.3279C34.4273 15.3279 33.2991 17.0427 33.2991 17.0427L33.4677 15.9825H31.7105L30.5337 23.2957H32.4715V23.2959Z" fill="#000066"/>
<path d="M43.8013 15.8013C42.5069 15.8013 41.5153 16.2171 41.5153 16.2171L41.2415 17.8425C41.2415 17.8425 42.0605 17.5099 43.2975 17.5099C44.0003 17.5099 44.5141 17.5889 44.5141 18.1599C44.5141 18.5067 44.4515 18.6347 44.4515 18.6347C44.4515 18.6347 43.8973 18.5885 43.6405 18.5885C41.7983 18.5885 40.2947 19.2849 40.2947 21.3845C40.2947 23.0391 41.4191 23.4185 42.1161 23.4185C43.4471 23.4185 43.9745 22.5779 44.0047 22.5755L43.9891 23.2731H45.6509L46.3919 18.0771C46.3921 15.8721 44.4689 15.8013 43.8013 15.8013ZM44.0885 20.0205C44.1245 20.3377 44.0063 21.8377 42.8701 21.8377C42.2837 21.8377 42.1317 21.3897 42.1317 21.1253C42.1317 20.6085 42.4121 19.9887 43.7947 19.9887C44.1169 19.9887 44.0345 20.0119 44.0885 20.0205Z" fill="#000066"/>
<path d="M48.3045 23.296C48.6061 20.9984 49.1643 17.7728 50.6507 18.2174C50.8805 17.0086 50.6589 17.0118 50.1641 17.0118C49.3185 17.0118 49.1313 17.0426 49.1313 17.0426L49.3001 15.9824H47.5431L46.3663 23.2958H48.3045V23.296Z" fill="#000066"/>
<path d="M24.4869 22.6115L24.7231 21.0077C24.5941 21.0077 24.4043 21.0629 24.2369 21.0629C23.5801 21.0629 23.5077 20.7137 23.5495 20.4555L24.0801 17.1831H25.0783L25.3193 15.4091H24.3781L24.5697 14.3059H22.6829C22.6413 14.3475 21.5691 20.5105 21.5691 21.2609C21.5691 22.3719 22.1929 22.8667 23.0725 22.8587C23.7613 22.8529 24.2977 22.6623 24.4869 22.6115Z" fill="white"/>
<path d="M25.0847 19.554C25.0847 22.2204 26.8447 22.854 28.3441 22.854C29.7281 22.854 30.3371 22.5446 30.3371 22.5446L30.6695 20.7248C30.6695 20.7248 29.6167 21.1886 28.6659 21.1886C26.6399 21.1886 26.9947 19.678 26.9947 19.678H30.8291C30.8291 19.678 31.0767 18.4554 31.0767 17.9572C31.0767 16.714 30.4579 15.1992 28.3863 15.1992C26.4891 15.1996 25.0847 17.2438 25.0847 19.554ZM28.3935 16.889C29.4583 16.889 29.2619 18.0856 29.2619 18.1824H27.1671C27.1671 18.0588 27.3651 16.889 28.3935 16.889Z" fill="white"/>
<path d="M40.3416 22.6108L40.6792 20.5538C40.6792 20.5538 39.7534 21.018 39.118 21.018C37.7796 21.018 37.2428 19.996 37.2428 18.898C37.2428 16.6706 38.3944 15.4452 39.6764 15.4452C40.6378 15.4452 41.4094 15.985 41.4094 15.985L41.7174 13.9864C41.7174 13.9864 40.5732 13.5234 39.5924 13.5234C37.4142 13.5234 35.2952 15.413 35.2952 18.9618C35.2952 21.315 36.4394 22.8692 38.691 22.8692C39.3276 22.8694 40.3416 22.6108 40.3416 22.6108Z" fill="white"/>
<path d="M14.1095 15.2285C12.8157 15.2285 11.8239 15.6443 11.8239 15.6443L11.5501 17.2697C11.5501 17.2697 12.3687 16.9371 13.6061 16.9371C14.3087 16.9371 14.8227 17.0161 14.8227 17.5871C14.8227 17.9339 14.7597 18.0619 14.7597 18.0619C14.7597 18.0619 14.2055 18.0155 13.9489 18.0155C12.3171 18.0155 10.6029 18.7119 10.6029 20.8115C10.6029 22.4659 11.7275 22.8455 12.4245 22.8455C13.7557 22.8455 14.3295 21.9817 14.3601 21.9791L14.2979 22.7001H15.9593L16.7005 17.5039C16.7005 15.2995 14.7775 15.2285 14.1095 15.2285ZM14.5137 19.4593C14.5497 19.7767 14.3147 21.2645 13.1787 21.2645C12.5927 21.2645 12.4403 20.8169 12.4403 20.5521C12.4403 20.0357 12.7209 19.4157 14.1035 19.4157C14.4251 19.4161 14.4595 19.4505 14.5137 19.4593Z" fill="white"/>
<path d="M18.4663 22.8074C18.8913 22.8074 21.3209 22.9154 21.3209 20.4084C21.3209 18.0646 19.0719 18.5276 19.0719 17.586C19.0719 17.1172 19.4385 16.9696 20.1085 16.9696C20.3745 16.9696 21.3979 17.0542 21.3979 17.0542L21.6359 15.3882C21.6359 15.3884 20.9735 15.24 19.8951 15.24C18.4993 15.24 17.0825 15.7972 17.0825 17.7036C17.0825 19.8638 19.4449 19.647 19.4449 20.557C19.4449 21.1644 18.7849 21.2138 18.2763 21.2138C17.3961 21.2138 16.6035 20.9118 16.6007 20.9262L16.3491 22.5754C16.3947 22.5894 16.8835 22.8074 18.4663 22.8074Z" fill="white"/>
<path d="M55.9705 13.7332L55.5635 16.2586C55.5635 16.2586 54.8533 15.2776 53.7415 15.2776C52.0127 15.2776 50.5717 17.362 50.5717 19.757C50.5717 21.303 51.3403 22.8178 52.9115 22.8178C54.0417 22.8178 54.6683 22.0298 54.6683 22.0298L54.5853 22.7028H56.4205L57.8619 13.7302L55.9705 13.7332ZM55.0943 18.6572C55.0943 19.6538 54.6009 20.985 53.5779 20.985C52.8989 20.985 52.5807 20.415 52.5807 19.5204C52.5807 18.0576 53.2377 17.0924 54.0667 17.0924C54.7459 17.0922 55.0943 17.5588 55.0943 18.6572Z" fill="white"/>
<path d="M3.8933 22.7107L5.0419 15.9367L5.2105 22.7107H6.5105L8.9355 15.9367L7.8613 22.7107H9.7929L11.2805 13.7261H8.2935L6.4333 19.2387L6.3365 13.7261H3.5831L2.0741 22.7107H3.8933Z" fill="white"/>
<path d="M32.9637 22.7233C33.5129 19.6001 33.6147 17.0641 34.9253 17.5283C35.1547 16.3195 35.3761 15.8519 35.6265 15.3403C35.6265 15.3403 35.5091 15.3157 35.2627 15.3157C34.4177 15.3157 33.7917 16.4701 33.7917 16.4701L33.9599 15.4099H32.2031L31.0261 22.7233H32.9637Z" fill="white"/>
<path d="M44.6951 15.2285C43.4013 15.2285 42.4095 15.6443 42.4095 15.6443L42.1359 17.2697C42.1359 17.2697 42.9545 16.9371 44.1919 16.9371C44.8945 16.9371 45.4081 17.0161 45.4081 17.5871C45.4081 17.9339 45.3455 18.0619 45.3455 18.0619C45.3455 18.0619 44.7913 18.0155 44.5345 18.0155C42.9029 18.0155 41.1887 18.7119 41.1887 20.8115C41.1887 22.4659 42.3131 22.8455 43.0101 22.8455C44.3413 22.8455 44.9151 21.9817 44.9455 21.9791L44.8837 22.7001C44.8837 22.7001 46.5445 22.7001 46.5451 22.7001L47.2861 17.5039C47.2863 15.2995 45.3631 15.2285 44.6951 15.2285ZM45.0999 19.4593C45.1359 19.7767 44.9007 21.2645 43.7643 21.2645C43.1783 21.2645 43.0263 20.8169 43.0263 20.5521C43.0263 20.0357 43.3069 19.4157 44.6893 19.4157C45.0109 19.4161 45.0451 19.4505 45.0999 19.4593Z" fill="white"/>
<path d="M48.8046 22.7233C49.354 19.6001 49.4558 17.0641 50.766 17.5283C50.9958 16.3195 51.2174 15.8519 51.4676 15.3403C51.4676 15.3403 51.3502 15.3157 51.1038 15.3157C50.2588 15.3157 49.6328 16.4701 49.6328 16.4701L49.801 15.4099H48.0442L46.8672 22.7233H48.8046Z" fill="white"/>
<path d="M57.8211 21.595C57.9169 21.595 58.0113 21.6196 58.1023 21.6696C58.1941 21.718 58.2655 21.7892 58.3167 21.8814C58.3681 21.973 58.3933 22.0684 58.3933 22.1682C58.3933 22.2668 58.3681 22.362 58.3175 22.453C58.2673 22.544 58.1967 22.6154 58.1057 22.6656C58.0149 22.7156 57.9197 22.7408 57.8209 22.7408C57.7213 22.7408 57.6261 22.7156 57.5351 22.6656C57.4443 22.615 57.3739 22.544 57.3235 22.453C57.2723 22.362 57.2473 22.2668 57.2473 22.1682C57.2473 22.0684 57.2727 21.973 57.3241 21.8814C57.3757 21.7892 57.4473 21.7184 57.5387 21.6696C57.6309 21.6196 57.7253 21.595 57.8211 21.595ZM57.8211 21.6894C57.7409 21.6894 57.6625 21.7102 57.5859 21.752C57.5095 21.7928 57.4501 21.8518 57.4071 21.929C57.3643 22.0052 57.3427 22.085 57.3427 22.1678C57.3427 22.2506 57.3635 22.3298 57.4053 22.4054C57.4479 22.4808 57.5071 22.54 57.5835 22.5826C57.6591 22.6242 57.7381 22.6452 57.8211 22.6452C57.9035 22.6452 57.9831 22.6242 58.0587 22.5826C58.1343 22.54 58.1935 22.4808 58.2355 22.4054C58.2777 22.3292 58.2983 22.2506 58.2983 22.1678C58.2983 22.085 58.2769 22.0052 58.2341 21.929C58.1915 21.8518 58.1321 21.7928 58.0553 21.752C57.9793 21.7104 57.9015 21.6894 57.8211 21.6894ZM57.5701 22.4846V21.868H57.7823C57.8545 21.868 57.9073 21.8738 57.9393 21.8856C57.9717 21.8966 57.9971 21.9164 58.0169 21.945C58.0363 21.9734 58.0461 22.0032 58.0461 22.0352C58.0461 22.0802 58.0297 22.1196 57.9973 22.1528C57.9657 22.186 57.9231 22.2052 57.8699 22.2088C57.8911 22.218 57.9087 22.229 57.9223 22.2414C57.9469 22.2658 57.9773 22.3066 58.0133 22.3636L58.0887 22.4844H57.9669L57.9127 22.3874C57.8695 22.3108 57.8349 22.2632 57.8085 22.2438C57.7903 22.2296 57.7637 22.2226 57.7287 22.2226H57.6705V22.4848L57.5701 22.4846ZM57.6697 22.1376H57.7905C57.8483 22.1376 57.8873 22.129 57.9081 22.1118C57.9291 22.095 57.9401 22.072 57.9401 22.0434C57.9401 22.0252 57.9351 22.0088 57.9251 21.995C57.9149 21.9802 57.9007 21.9696 57.8825 21.9622C57.8643 21.9552 57.8317 21.9516 57.7829 21.9516H57.6699V22.1376" fill="white"/>
</svg>
