<svg width="30" height="83" viewBox="0 0 30 83" fill="none" xmlns="http://www.w3.org/2000/svg">
<path d="M12.3 17.5H13.3V15.8155L11.8211 16.6221L12.3 17.5ZM6.5 20.1L6.85112 21.0363L6.87151 21.0287L6.89156 21.0202L6.5 20.1ZM4 21.1L4.38075 22.0247L4.38075 22.0247L4 21.1ZM1.2 22.4H0.2V24.0845L1.67885 23.2779L1.2 22.4ZM1.2 10L0.74098 9.11157L0.2 9.39108V10H1.2ZM15.9 0.999994V-5.72205e-06H15.4751L15.1802 0.305859L15.9 0.999994ZM29 0.999994H30V-5.72205e-06H29V0.999994ZM29 82V83H30V82H29ZM12.3 82H11.3V83H12.3V82ZM11.8211 16.6221C11.1402 16.9935 9.25908 17.8391 6.10844 19.1798L6.89156 21.0202C10.0076 19.6942 11.9931 18.8065 12.7789 18.3779L11.8211 16.6221ZM6.14888 19.1637C5.59967 19.3696 4.75391 19.7081 3.61925 20.1753L4.38075 22.0247C5.51276 21.5586 6.33366 21.2304 6.85112 21.0363L6.14888 19.1637ZM3.61925 20.1753C2.46632 20.6501 1.49725 21.0988 0.721145 21.5221L1.67885 23.2779C2.36942 22.9012 3.26701 22.4833 4.38075 22.0247L3.61925 20.1753ZM2.2 22.4V10H0.2V22.4H2.2ZM1.65902 10.8884C5.66994 8.81611 8.91844 7.02043 11.3972 5.50285C13.8538 3.99881 15.6244 2.72641 16.6198 1.69413L15.1802 0.305859C14.3756 1.14024 12.7962 2.30118 10.3528 3.79714C7.93156 5.27956 4.73006 7.05054 0.74098 9.11157L1.65902 10.8884ZM15.9 1.99999H29V-5.72205e-06H15.9V1.99999ZM28 0.999994V82H30V0.999994H28ZM29 81H12.3V83H29V81ZM13.3 82V17.5H11.3V82H13.3Z" fill="#21334F"/>
</svg>
