<svg width="176" height="149" viewBox="0 0 176 149" fill="none" xmlns="http://www.w3.org/2000/svg">
<path fill-rule="evenodd" clip-rule="evenodd" d="M-0.000106812 125.729C26.2451 112.8 39.3676 97.6096 39.3676 80.1562C28.1811 78.8633 18.9308 74.2846 11.6166 66.4197C4.30232 58.5549 0.645279 49.4512 0.645279 39.1085C0.645279 28.1193 4.19478 18.854 11.2939 11.3124C18.393 3.77075 27.3206 0 38.0768 0C50.1238 0 60.5572 4.90198 69.3773 14.7061C78.1974 24.5102 82.6074 36.415 82.6074 50.4208C82.6074 92.4384 59.1592 125.298 12.2619 149L-0.000106812 125.729ZM92.6205 125.729C119.081 112.8 132.311 97.6096 132.311 80.1562C120.909 78.8633 111.551 74.2846 104.237 66.4197C96.9229 58.5549 93.2659 49.4512 93.2659 39.1085C93.2659 28.1193 96.8691 18.854 104.076 11.3124C111.283 3.77075 120.264 0 131.02 0C143.067 0 153.447 4.90198 162.159 14.7061C170.872 24.5102 175.228 36.415 175.228 50.4208C175.228 92.4384 151.887 125.298 105.205 149L92.6205 125.729Z" fill="#34A853" fill-opacity="0.1"/>
</svg>
