<svg width="113" height="32" viewBox="0 0 113 32" fill="none" xmlns="http://www.w3.org/2000/svg">
<path d="M30.9628 22.7458V9.03149H36.7576C37.8939 9.03149 38.8029 9.14299 39.4278 9.36599C39.996 9.64473 40.5073 10.0907 40.8481 10.704C41.2458 11.3172 41.4163 11.9862 41.4163 12.7667C41.4163 13.7144 41.1322 14.5507 40.5073 15.2197C39.7651 15.9594 38.7776 16.4143 37.7235 16.5019C38.178 16.7249 38.5188 16.9479 38.7461 17.1709C39.2574 17.6726 39.7687 18.2859 40.2232 19.0106L42.4957 22.7458H40.28L38.5756 19.9026C38.0643 19.0663 37.6666 18.3974 37.3258 18.0071C36.9849 17.5611 36.7008 17.2266 36.4168 17.0594C36.1895 16.8921 35.9055 16.7806 35.6214 16.7249L34.6556 16.6134H32.6671V22.7458H30.9628ZM32.6671 15.0524H36.4168C37.2121 15.0524 37.7803 14.9967 38.2348 14.8294C38.6893 14.6622 39.0301 14.3834 39.2574 13.9932C39.4846 13.6029 39.5983 13.2127 39.5983 12.7667C39.5983 12.0977 39.371 11.596 38.9165 11.15C38.5188 10.7597 37.7803 10.5367 36.8145 10.5367H32.6671V15.0524ZM49.3132 19.5123L50.9608 19.7353C50.7335 20.7388 50.2222 21.5751 49.5404 22.1325C48.7588 22.7151 47.7941 23.011 46.8134 22.9688C45.3931 22.9688 44.3137 22.5228 43.5183 21.6308C42.6352 20.564 42.1895 19.2121 42.2684 17.8399C42.2684 16.1674 42.7229 14.8852 43.5183 13.9374C44.3705 13.0454 45.3931 12.5994 46.6998 12.5994C48.0065 12.5994 49.0291 13.0454 49.8245 13.9374C50.6199 14.8294 51.0176 16.1116 51.0176 17.7284V18.1744H43.9728C44.0296 19.2893 44.3137 20.1256 44.825 20.6831C45.3363 21.2963 46.0181 21.5751 46.8134 21.5751C47.3816 21.5751 47.8929 21.4078 48.3474 21.0733C48.7451 20.7388 49.0859 20.2371 49.3132 19.5123ZM44.0296 16.8364H49.3132C49.2564 16.0001 49.0859 15.3312 48.7451 14.9409C48.2338 14.2719 47.552 13.9374 46.7566 13.9374C46.0181 13.9374 45.3931 14.2162 44.8818 14.7179C44.3705 15.2754 44.0864 15.9444 44.0296 16.8364ZM51.9266 22.7458V12.8224H53.3469V14.2162C54.0286 13.1012 55.0513 12.5994 56.3579 12.5994C56.9261 12.5994 57.4374 12.6552 57.9487 12.8782C58.4032 13.1012 58.8009 13.3799 59.0281 13.7144C59.2554 14.1047 59.4258 14.4949 59.5394 14.9967L59.5963 16.6134V22.7458H58.0055V16.6691C58.0055 16.0001 57.9487 15.4984 57.8351 15.1639C57.6646 14.8294 57.4942 14.5507 57.1533 14.3277C56.6898 14.0859 56.1604 13.9936 55.6404 14.0636C55.1203 14.1336 54.6359 14.3626 54.2559 14.7179C53.7446 15.1639 53.5173 16.0559 53.5173 17.2824V22.7458H51.9266Z" fill="#E65741"/>
<path d="M62.4938 22.7458V9.03149H65.1071L68.175 18.7318L68.8 20.7388L69.5385 18.5646L72.6632 9.03149H74.9925V22.7458H73.2881V11.2615L69.4817 22.7458H67.9478L64.1413 11.0385V22.7458H62.4938ZM76.2424 17.7841C76.2424 15.9444 76.7537 14.5507 77.7195 13.6587C78.5149 12.9339 79.5375 12.5994 80.6738 12.5994C81.9804 12.5994 83.0599 13.0454 83.8553 13.9374C84.7074 14.8294 85.1051 16.0559 85.1051 17.6169C85.1051 18.8991 84.9347 19.9026 84.5938 20.6273C84.2222 21.3167 83.6662 21.8938 82.9856 22.2965C82.305 22.6992 81.5254 22.9124 80.7306 22.913C79.3671 22.9688 78.2876 22.5228 77.4355 21.6308C76.6401 20.7388 76.2424 19.4566 76.2424 17.7841ZM77.89 17.7841C77.89 19.0106 78.174 20.0141 78.6853 20.6273C79.1966 21.2406 79.8784 21.5751 80.6738 21.5751C81.4691 21.5751 82.1509 21.2406 82.6622 20.6273C83.2303 19.9583 83.4576 19.0106 83.4576 17.7284C83.4576 16.5019 83.2303 15.5541 82.6622 14.9409C82.1509 14.2719 81.4691 13.9374 80.6738 13.9374C79.8784 13.9374 79.1966 14.2719 78.6853 14.8852C78.174 15.5541 77.89 16.5019 77.89 17.7841ZM86.2982 22.7458V12.8224H87.7185V14.2162C88.4003 13.1012 89.4229 12.5994 90.7296 12.5994C91.2977 12.5994 91.8658 12.6552 92.3203 12.8782C92.7748 13.1012 93.1725 13.3799 93.3998 13.7144C93.627 14.1047 93.7974 14.4949 93.9111 14.9967L93.9679 16.6134V22.7458H92.3771V16.6691C92.3771 16.0001 92.3203 15.4984 92.2067 15.1639C92.0931 14.8294 91.8658 14.5507 91.5249 14.3277C91.0614 14.0859 90.5321 13.9936 90.012 14.0636C89.4919 14.1336 89.0075 14.3626 88.6275 14.7179C88.1162 15.1639 87.8889 16.0559 87.8889 17.2824V22.7458H86.2982ZM102.206 19.5123L103.853 19.7353C103.626 20.7388 103.115 21.5751 102.433 22.1325C101.651 22.7151 100.687 23.011 99.7059 22.9688C98.3424 22.9688 97.2062 22.5228 96.4108 21.6308C95.548 20.556 95.1228 19.2049 95.2178 17.8399C95.2178 16.1674 95.6154 14.8852 96.4108 13.9374C97.263 13.0454 98.2856 12.5994 99.5923 12.5994C100.899 12.5994 101.922 13.0454 102.717 13.9374C103.512 14.8294 103.91 16.1116 103.91 17.7284V18.1744H96.8653C96.9221 19.2893 97.2062 20.1256 97.7175 20.6831C98.2856 21.2963 98.9106 21.5751 99.7059 21.5751C100.331 21.5751 100.785 21.4078 101.24 21.0733C101.638 20.7388 101.978 20.2371 102.206 19.5123ZM96.9221 16.8364H102.262C102.149 16.0001 101.978 15.3311 101.638 14.9409C101.126 14.2719 100.444 13.9374 99.6491 13.9374C98.9106 13.9374 98.2856 14.2162 97.7743 14.7179C97.263 15.2754 96.9789 15.9444 96.9221 16.8364ZM105.103 26.5367L104.933 24.9757L105.842 25.143C106.183 25.143 106.467 25.0872 106.694 24.92C106.921 24.8085 107.092 24.6413 107.205 24.4183C107.492 23.8858 107.72 23.3252 107.887 22.7458L104.251 12.8224H106.012L107.944 18.5646L108.682 20.8503L109.307 18.5646L111.352 12.8224H112.943L109.364 22.913C108.966 23.9723 108.682 24.7528 108.455 25.143C108.171 25.7005 107.83 26.0907 107.432 26.3695C107.092 26.6482 106.637 26.7597 106.126 26.7597C105.842 26.7597 105.501 26.704 105.103 26.5367Z" fill="#27799D"/>
<path d="M20.9069 14.7735C22.7268 14.7735 24.2021 13.3259 24.2021 11.5401C24.2021 9.75431 22.7268 8.30664 20.9069 8.30664C19.0871 8.30664 17.6118 9.75431 17.6118 11.5401C17.6118 13.3259 19.0871 14.7735 20.9069 14.7735Z" fill="#E65741"/>
<path d="M8.40824 7.35902L9.71492 12.3764C9.99899 13.4357 10.8512 14.3277 12.0442 14.6064C13.7486 15.0524 15.5666 14.0489 16.0779 12.3207C16.5892 10.5925 15.5666 8.8085 13.8054 8.3625L8.6923 7.08027C8.52186 7.02452 8.35143 7.19177 8.40824 7.35902Z" fill="#65BBC2"/>
<path d="M25.3952 23.4702L24.0317 18.4528C23.7476 17.3935 22.9522 16.5016 21.7592 16.2228C19.998 15.7768 18.18 16.7803 17.7255 18.5085C17.2142 20.2367 18.2368 22.0207 19.998 22.4667L25.1111 23.7489C25.2815 23.8047 25.452 23.6374 25.3952 23.4702ZM8.6923 23.7489L13.8054 22.4667C14.8849 22.188 15.7939 21.3517 16.0779 20.181C16.5324 18.5085 15.5098 16.7246 13.7486 16.2228C11.9874 15.7211 10.1694 16.7246 9.71493 18.4528L8.40824 23.4702C8.35143 23.6374 8.52186 23.8047 8.6923 23.7489Z" fill="#27799D"/>
</svg>
