<svg width="48" height="87" viewBox="0 0 48 87" fill="none" xmlns="http://www.w3.org/2000/svg">
<path d="M1.8 57.2V56.2H0.8V57.2H1.8ZM18.5 57.2H19.5V56.2H18.5V57.2ZM19.7 68.9L18.792 69.3191L18.8019 69.3404L18.8128 69.3614L19.7 68.9ZM28 51.3L27.1425 51.8145L27.1464 51.821L27.1504 51.8274L28 51.3ZM21.3 48.2L21.3204 47.2002L21.3102 47.2H21.3V48.2ZM18.2 48.2H17.2V49.2H18.2V48.2ZM18.2 36.7V35.7H17.2V36.7H18.2ZM27.9 34L28.7178 34.5755L28.7227 34.5685L28.7275 34.5615L27.9 34ZM28.5 17.5L27.6207 17.9763L28.5 17.5ZM19.6 17.7L18.692 17.2809L18.6883 17.2891L18.6847 17.2973L19.6 17.7ZM18.5 29.3V30.3H19.5V29.3H18.5ZM1.8 29.3H0.8V30.3H1.8V29.3ZM7.6 7.7L8.30711 8.4071L7.6 7.7ZM40.4 7.4L41.0884 6.67469L40.4 7.4ZM43.5 35.5L44.3638 36.0039L44.3682 35.9961L43.5 35.5ZM36.4 41.5L36.1312 40.5368L33.1558 41.3671L36.0533 42.438L36.4 41.5ZM43.6 47.6L42.7391 48.1087L42.7433 48.1159L42.7477 48.123L43.6 47.6ZM41 78.8L41.7843 79.4204L41.7887 79.4147L41 78.8ZM24.1 84.5C16.1972 84.5 10.8277 82.3475 7.69129 78.2886L6.10872 79.5114C9.77227 84.2525 15.8695 86.5 24.1 86.5V84.5ZM7.69129 78.2886C4.47655 74.1283 2.8 68.1107 2.8 60.1H0.8C0.8 68.356 2.52345 74.8717 6.10872 79.5114L7.69129 78.2886ZM2.8 60.1V57.2H0.8V60.1H2.8ZM1.8 58.2H18.5V56.2H1.8V58.2ZM17.5 57.2V60.1H19.5V57.2H17.5ZM17.5 60.1C17.5 64.2478 17.8938 67.3728 18.792 69.3191L20.608 68.4809C19.9062 66.9605 19.5 64.2189 19.5 60.1H17.5ZM18.8128 69.3614C19.8905 71.4339 21.8529 72.4 24.4 72.4V70.4C22.4137 70.4 21.2428 69.6995 20.5872 68.4386L18.8128 69.3614ZM24.4 72.4C25.5937 72.4 26.6705 72.1669 27.5776 71.6395C28.4953 71.106 29.1722 70.3098 29.6153 69.3027L27.7847 68.4973C27.4944 69.1569 27.088 69.6107 26.5724 69.9105C26.0462 70.2164 25.3397 70.4 24.4 70.4V72.4ZM29.6153 69.3027C30.4384 67.432 30.8 64.4841 30.8 60.6H28.8C28.8 64.4492 28.4282 67.0347 27.7847 68.4973L29.6153 69.3027ZM30.8 60.6C30.8 56.285 30.2015 52.9507 28.8496 50.7726L27.1504 51.8274C28.1985 53.516 28.8 56.3816 28.8 60.6H30.8ZM28.8575 50.7855C27.4145 48.3805 24.7793 47.2708 21.3204 47.2002L21.2796 49.1998C24.354 49.2625 26.1855 50.2195 27.1425 51.8145L28.8575 50.7855ZM21.3 47.2H18.2V49.2H21.3V47.2ZM19.2 48.2V36.7H17.2V48.2H19.2ZM18.2 37.7H20.9V35.7H18.2V37.7ZM20.9 37.7C24.4418 37.7 27.1786 36.7628 28.7178 34.5755L27.0822 33.4245C26.0881 34.8372 24.1582 35.7 20.9 35.7V37.7ZM28.7275 34.5615C30.1691 32.4371 30.8 29.1151 30.8 24.8H28.8C28.8 29.0182 28.1643 31.8296 27.0725 33.4385L28.7275 34.5615ZM30.8 24.8C30.8 21.48 30.3656 18.8446 29.3793 17.0237L27.6207 17.9763C28.3677 19.3554 28.8 21.5867 28.8 24.8H30.8ZM29.3793 17.0237C28.2982 15.0279 26.3755 14.1 23.9 14.1V16.1C25.8245 16.1 26.9685 16.7721 27.6207 17.9763L29.3793 17.0237ZM23.9 14.1C22.7268 14.1 21.6631 14.3468 20.7576 14.8943C19.847 15.4449 19.1636 16.2591 18.692 17.2809L20.508 18.1191C20.8364 17.4075 21.2697 16.9218 21.7924 16.6057C22.3202 16.2866 23.0066 16.1 23.9 16.1V14.1ZM18.6847 17.2973C17.8674 19.1547 17.5 21.7875 17.5 25.1H19.5C19.5 21.8792 19.8659 19.5787 20.5153 18.1027L18.6847 17.2973ZM17.5 25.1V29.3H19.5V25.1H17.5ZM18.5 28.3H1.8V30.3H18.5V28.3ZM2.8 29.3V24.4H0.8V29.3H2.8ZM2.8 24.4C2.8 17.3083 4.68336 12.0308 8.30711 8.4071L6.89289 6.99289C2.7833 11.1025 0.8 16.9583 0.8 24.4H2.8ZM8.30711 8.4071C12.0091 4.70509 17.1628 2.8 23.9 2.8V0.799997C16.7705 0.799997 11.0575 2.82824 6.89289 6.99289L8.30711 8.4071ZM23.9 2.8C30.7907 2.8 36.0151 4.61676 39.7116 8.1253L41.0884 6.67469C36.9183 2.71657 31.1426 0.799997 23.9 0.799997V2.8ZM39.7116 8.1253C43.3887 11.6154 45.3 16.7504 45.3 23.7H47.3C47.3 16.3829 45.278 10.6512 41.0884 6.67469L39.7116 8.1253ZM45.3 23.7C45.3 28.1645 44.3948 31.9185 42.6318 35.0039L44.3682 35.9961C46.3385 32.5481 47.3 28.4355 47.3 23.7H45.3ZM42.6362 34.9961C40.8668 38.0294 38.6895 39.8229 36.1312 40.5368L36.6688 42.4632C39.8439 41.5771 42.3998 39.3706 44.3638 36.0039L42.6362 34.9961ZM36.0533 42.438C38.8947 43.4881 41.1174 45.3643 42.7391 48.1087L44.4609 47.0913C42.616 43.969 40.0386 41.7786 36.7467 40.562L36.0533 42.438ZM42.7477 48.123C44.41 50.8319 45.3 54.8191 45.3 60.2H47.3C47.3 54.6475 46.39 50.2347 44.4523 47.077L42.7477 48.123ZM45.3 60.2C45.3 67.9251 43.565 73.8824 40.2113 78.1853L41.7887 79.4147C45.5017 74.651 47.3 68.2082 47.3 60.2H45.3ZM40.2157 78.1796C36.9343 82.3278 31.6444 84.5 24.1 84.5V86.5C32.0223 86.5 37.9991 84.2055 41.7843 79.4204L40.2157 78.1796Z" fill="#21334F"/>
</svg>
