<svg width="48" height="85" viewBox="0 0 48 85" fill="none" xmlns="http://www.w3.org/2000/svg">
<path d="M2.1 72.2L1.26194 71.6544L1.1 71.9032V72.2H2.1ZM21.5 42.4L20.6679 41.8453L20.6619 41.8544L21.5 42.4ZM22.7 40.6L21.868 40.0453L22.7 40.6ZM28.3 31.1L29.2038 31.5281L29.208 31.5191L28.3 31.1ZM28.7 17.9L27.8893 18.4855L27.9079 18.5112L27.9281 18.5357L28.7 17.9ZM19.6 19.1L20.4883 19.5595L20.4944 19.5472L19.6 19.1ZM18.1 31.2V32.2H19.1V31.2H18.1ZM1.9 31.2H0.9V32.2H1.9V31.2ZM7.4 8.7L6.62804 8.06427L6.62249 8.07113L7.4 8.7ZM40.9 7.5L40.1929 8.20713L40.1992 8.21333L40.9 7.5ZM45.1 32L44.1609 31.6564L44.1572 31.6666L44.1537 31.6769L45.1 32ZM41.7 39.4L40.8448 38.8817L41.7 39.4ZM35.5 48.8L34.6763 48.2328L34.6691 48.2436L35.5 48.8ZM20.7 70.9L19.8691 70.3436L18.8268 71.9H20.7V70.9ZM44.4 70.9H45.4V69.9H44.4V70.9ZM44.4 84V85H45.4V84H44.4ZM2.1 84H1.1V85H2.1V84ZM2.93806 72.7456L22.3381 42.9456L20.6619 41.8544L1.26194 71.6544L2.93806 72.7456ZM22.3321 42.9547L23.5321 41.1547L21.868 40.0453L20.668 41.8453L22.3321 42.9547ZM23.5321 41.1547C26.0778 37.336 27.9742 34.1239 29.2037 31.5281L27.3963 30.6719C26.2258 33.1428 24.3888 36.264 21.868 40.0453L23.5321 41.1547ZM29.208 31.5191C30.4672 28.7907 31.1 25.948 31.1 23H29.1C29.1 25.652 28.5328 28.2092 27.392 30.6809L29.208 31.5191ZM31.1 23C31.1 20.6213 30.6142 18.6514 29.4719 17.2643L27.9281 18.5357C28.6524 19.4153 29.1 20.8454 29.1 23H31.1ZM29.5107 17.3145C28.4303 15.8185 26.8411 15.1 24.9 15.1V17.1C26.2922 17.1 27.2364 17.5815 27.8893 18.4855L29.5107 17.3145ZM24.9 15.1C23.5029 15.1 22.2489 15.3761 21.1824 15.9797C20.1086 16.5875 19.2851 17.4938 18.7056 18.6528L20.4944 19.5472C20.9149 18.7062 21.4747 18.1124 22.1676 17.7203C22.8678 17.3239 23.7637 17.1 24.9 17.1V15.1ZM18.7118 18.6406C17.6073 20.7759 17.1 23.6584 17.1 27.2H19.1C19.1 23.8083 19.5927 21.2908 20.4882 19.5594L18.7118 18.6406ZM17.1 27.2V31.2H19.1V27.2H17.1ZM18.1 30.2H1.9V32.2H18.1V30.2ZM2.9 31.2V26.9H0.9V31.2H2.9ZM2.9 26.9C2.9 19.4587 4.69348 13.6364 8.17751 9.32887L6.62249 8.07113C2.77318 12.8303 0.9 19.1413 0.9 26.9H2.9ZM8.17193 9.3357C11.6591 5.10132 17.064 2.9 24.6 2.9V0.899996C16.6693 0.899996 10.6076 3.232 6.62807 8.06429L8.17193 9.3357ZM24.6 2.9C31.5639 2.9 36.7054 4.71961 40.1929 8.2071L41.6071 6.79289C37.6279 2.81372 31.9028 0.899996 24.6 0.899996V2.9ZM40.1992 8.21333C43.7585 11.7102 45.6 16.6903 45.6 23.3H47.6C47.6 16.3097 45.6415 10.7564 41.6008 6.78666L40.1992 8.21333ZM45.6 23.3C45.6 26.2558 45.1185 29.039 44.1609 31.6564L46.0391 32.3436C47.0815 29.4944 47.6 26.4775 47.6 23.3H45.6ZM44.1537 31.6769C43.2408 34.3502 42.1366 36.7503 40.8448 38.8817L42.5552 39.9183C43.9301 37.6497 45.0925 35.1164 46.0464 32.3231L44.1537 31.6769ZM40.8448 38.8817C39.5268 41.0563 37.4734 44.1705 34.6764 48.2329L36.3237 49.3671C39.1266 45.2961 41.2065 42.1437 42.5552 39.9183L40.8448 38.8817ZM34.6691 48.2436L19.8691 70.3436L21.5309 71.4564L36.3309 49.3564L34.6691 48.2436ZM20.7 71.9H44.4V69.9H20.7V71.9ZM43.4 70.9V84H45.4V70.9H43.4ZM44.4 83H2.1V85H44.4V83ZM3.1 84V72.2H1.1V84H3.1Z" fill="#21334F"/>
</svg>
